<svg width="260" height="127" viewBox="0 0 260 127" fill="none" xmlns="http://www.w3.org/2000/svg">
<path d="M2.99994 102.88C2.99994 96.5643 4.50822 91.3822 7.52214 87.3313C10.5387 83.2831 14.8566 81.2563 20.4812 81.2563H30.8715C36.4961 81.2563 40.8141 83.2805 43.8306 87.3313C46.8472 91.3796 48.3528 96.5643 48.3528 102.88V122.899C48.3528 123.967 47.926 124.504 47.0697 124.504C46.2135 124.504 45.7867 123.97 45.7867 122.899V102.88C45.7867 97.431 44.4826 92.9743 41.8746 89.5099C39.2665 86.0456 35.5587 84.3148 30.7511 84.3148H20.6043C15.7967 84.3148 12.0888 86.0456 9.48079 89.5099C6.87274 92.9743 5.56871 97.431 5.56871 102.88V122.899C5.56871 123.967 5.14189 124.504 4.28564 124.504C3.42938 124.504 3.00256 123.97 3.00256 122.899V102.88H2.99994Z" fill="white" stroke="white" stroke-width="4.18964" stroke-miterlimit="10"/>
<path d="M63.4826 89.0491C60.8955 92.207 59.4789 96.3076 59.2354 101.351H95.1144C95.9288 101.351 96.3373 101.862 96.3373 102.88C96.3373 103.899 95.9288 104.409 95.1144 104.409H59.2354C59.4789 109.453 60.8955 113.553 63.4826 116.711C66.0697 119.869 69.6676 121.448 74.271 121.448H98.9663C99.7807 121.448 100.189 121.959 100.189 122.975C100.189 123.991 99.7807 124.504 98.9663 124.504H74.1505C68.5259 124.504 64.208 122.48 61.1914 118.429C58.1749 114.381 56.6693 109.196 56.6693 102.88C56.6693 96.5643 58.1775 91.3822 61.1914 87.3313C64.208 83.2831 68.5259 81.2563 74.1505 81.2563H98.9663C99.7807 81.2563 100.189 81.767 100.189 82.783C100.189 83.7989 99.7807 84.3122 98.9663 84.3122H74.271C69.6676 84.3122 66.0697 85.8911 63.4826 89.0491Z" fill="white" stroke="white" stroke-width="4.18964" stroke-miterlimit="10"/>
<path d="M150.001 87.3313C153.018 91.3796 154.524 96.5643 154.524 102.88C154.524 109.196 153.015 114.378 150.001 118.429C146.985 122.477 142.667 124.504 137.042 124.504H124.939C119.315 124.504 114.997 122.48 111.98 118.429C108.964 114.381 107.458 109.196 107.458 102.88C107.458 96.5643 108.966 91.3822 111.98 87.3313C114.997 83.2831 119.315 81.2563 124.939 81.2563H137.042C142.667 81.2563 146.985 83.2805 150.001 87.3313ZM125.063 84.3122C120.255 84.3122 116.547 86.043 113.939 89.5073C111.331 92.9716 110.027 97.4284 110.027 102.878C110.027 108.327 111.331 112.721 113.939 116.211C116.547 119.702 120.255 121.445 125.063 121.445H136.922C141.729 121.445 145.437 119.702 148.045 116.211C150.653 112.723 151.957 108.277 151.957 102.878C151.957 97.4781 150.653 92.9716 148.045 89.5073C145.437 86.043 141.729 84.3122 136.922 84.3122H125.063Z" fill="white" stroke="white" stroke-width="4.18964" stroke-miterlimit="10"/>
<path d="M185.027 123.737C184.741 124.247 184.375 124.501 183.927 124.501C183.479 124.501 183.113 124.247 182.827 123.737L159.967 83.9299C159.763 83.6235 159.661 83.2674 159.661 82.8615C159.661 81.7931 160.088 81.2563 160.944 81.2563C161.392 81.2563 161.758 81.5365 162.044 82.0969L183.987 120.45L205.991 82.0969C206.318 81.5365 206.664 81.2563 207.03 81.2563C207.845 81.2563 208.253 81.767 208.253 82.783C208.253 83.1914 208.151 83.5476 207.947 83.8513L185.024 123.734L185.027 123.737Z" fill="white" stroke="white" stroke-width="4.18964" stroke-miterlimit="10"/>
<path d="M222.799 124.501C219.824 124.501 217.523 123.407 215.891 121.215C214.26 119.023 213.446 116.25 213.446 112.888C213.446 109.526 214.249 106.763 215.86 104.598C217.47 102.432 219.782 101.351 222.796 101.351H254.947C254.703 96.3076 253.297 92.207 250.728 89.0491C248.162 85.8911 244.575 84.3122 239.971 84.3122H215.826C215.011 84.3122 214.603 83.8016 214.603 82.783C214.603 81.7643 215.011 81.2563 215.826 81.2563H240.092C245.716 81.2563 250.034 83.2805 253.051 87.3313C256.067 91.3822 257.573 96.5643 257.573 102.88V106.088C257.573 111.487 256.29 115.905 253.721 119.343C251.155 122.781 247.465 124.501 242.658 124.501H222.794H222.799ZM251.681 117.012C253.902 114.059 255.012 110.264 255.012 105.63V104.407H222.862C220.662 104.407 218.971 105.208 217.787 106.813C216.606 108.418 216.014 110.469 216.014 112.964C216.014 115.46 216.606 117.497 217.787 119.076C218.968 120.655 220.66 121.443 222.862 121.443H242.176C246.292 121.443 249.461 119.966 251.681 117.012Z" fill="white" stroke="white" stroke-width="4.18964" stroke-miterlimit="10"/>
<path d="M114.437 6C100.655 6 89.482 17.1733 89.482 30.9546C89.482 44.7359 100.655 55.9091 114.437 55.9091C128.218 55.9091 139.391 44.7359 139.391 30.9546" stroke="#00C9FF" stroke-width="10.4741" stroke-miterlimit="10" stroke-linecap="round"/>
<path d="M144.618 56.0322C158.399 56.0322 169.572 44.8589 169.572 31.0776C169.572 17.2963 158.399 6.12305 144.618 6.12305C130.836 6.12305 119.663 17.2963 119.663 31.0776" stroke="#00C9FF" stroke-width="10.4741" stroke-miterlimit="10" stroke-linecap="round"/>
</svg>
